# This file uses centimeters as units for non-parametric coordinates.

mtllib car.mtl
g default
v 263.050812 -158.903442 -763.474976
v -263.050812 -158.903442 -763.474976
v 263.050812 183.563492 -746.752808
v -263.050812 183.563492 -746.752808
v -0.000000 -152.799911 748.254944
v -100.903656 68.607513 -313.217194
v 0.000000 66.569115 -271.471252
v 100.903656 68.607513 -313.217194
v 142.699310 73.528641 -414.000763
v 100.903656 78.449768 -514.784363
v 0.000000 80.488159 -556.530273
v -100.903656 78.449768 -514.784363
v -142.699326 73.528641 -414.000763
v -93.222816 123.525795 -318.225586
v 0.000000 121.642563 -279.657379
v 93.222816 123.525795 -318.225586
v 131.836975 128.072327 -411.337463
v 93.222816 132.618851 -504.449341
v 0.000000 134.502075 -543.017517
v -93.222816 132.618851 -504.449341
v -131.836975 128.072327 -411.337463
v -71.349655 170.832458 -337.814880
v 0.000000 169.391098 -308.296051
v 71.349655 170.832458 -337.814880
v 100.903656 174.312225 -409.079620
v 71.349655 177.791992 -480.344391
v 0.000000 179.233353 -509.863220
v -71.349663 177.791992 -480.344391
v -100.903656 174.312225 -409.079620
v -38.614159 203.325500 -369.002808
v 0.000000 202.545441 -353.027313
v 38.614159 203.325500 -369.002808
v 54.608662 205.208725 -407.570984
v 38.614159 207.091965 -446.139221
v 0.000000 207.872025 -462.114685
v -38.614162 207.091965 -446.139221
v -54.608669 205.208725 -407.570984
v 0.000000 216.058167 -407.041229
vt 0.375000 0.000000
vt 0.625000 0.000000
vt 0.375000 0.250000
vt 0.625000 0.250000
vt 0.500000 0.625000
vt 0.375000 1.000000
vt 0.625000 1.000000
vt 0.875000 0.125000
vt 0.125000 0.125000
vt 0.000000 0.500000
vt 0.125000 0.500000
vt 0.125000 0.625000
vt 0.000000 0.625000
vt 0.250000 0.500000
vt 0.250000 0.625000
vt 0.375000 0.500000
vt 0.375000 0.625000
vt 0.500000 0.500000
vt 0.500000 0.625000
vt 0.625000 0.500000
vt 0.625000 0.625000
vt 0.750000 0.500000
vt 0.750000 0.625000
vt 0.875000 0.500000
vt 0.875000 0.625000
vt 1.000000 0.500000
vt 1.000000 0.625000
vt 0.125000 0.750000
vt 0.000000 0.750000
vt 0.250000 0.750000
vt 0.375000 0.750000
vt 0.500000 0.750000
vt 0.625000 0.750000
vt 0.750000 0.750000
vt 0.875000 0.750000
vt 1.000000 0.750000
vt 0.125000 0.875000
vt 0.000000 0.875000
vt 0.250000 0.875000
vt 0.375000 0.875000
vt 0.500000 0.875000
vt 0.625000 0.875000
vt 0.750000 0.875000
vt 0.875000 0.875000
vt 1.000000 0.875000
vt 0.062500 1.000000
vt 0.187500 1.000000
vt 0.312500 1.000000
vt 0.437500 1.000000
vt 0.562500 1.000000
vt 0.687500 1.000000
vt 0.812500 1.000000
vt 0.937500 1.000000
vn 0.000000 0.048770 -0.998810
vn 0.000000 0.048770 -0.998810
vn 0.000000 0.048770 -0.998810
vn 0.000000 0.048770 -0.998810
vn 0.000000 0.975612 0.219504
vn 0.000000 0.975612 0.219504
vn 0.000000 0.975612 0.219504
vn 0.000000 -0.999992 0.004037
vn 0.000000 -0.999992 0.004037
vn 0.000000 -0.999992 0.004037
vn -0.985156 -0.008372 0.171457
vn -0.985156 -0.008372 0.171457
vn -0.985156 -0.008372 0.171457
vn 0.985156 -0.008372 0.171457
vn 0.985156 -0.008372 0.171457
vn 0.985156 -0.008372 0.171457
vn -0.376380 0.136213 0.916397
vn -0.376380 0.136213 0.916397
vn -0.376380 0.136213 0.916397
vn -0.376380 0.136213 0.916397
vn 0.376380 0.136213 0.916397
vn 0.376380 0.136213 0.916397
vn 0.376380 0.136213 0.916397
vn 0.376380 0.136213 0.916397
vn 0.908663 0.162173 0.384748
vn 0.908664 0.162173 0.384748
vn 0.908663 0.162173 0.384748
vn 0.908663 0.162173 0.384748
vn 0.908663 0.198886 -0.367118
vn 0.908663 0.198886 -0.367118
vn 0.908663 0.198886 -0.367118
vn 0.908663 0.198886 -0.367118
vn 0.376381 0.224846 -0.898767
vn 0.376381 0.224846 -0.898767
vn 0.376381 0.224846 -0.898767
vn 0.376381 0.224846 -0.898767
vn -0.376381 0.224846 -0.898767
vn -0.376381 0.224846 -0.898767
vn -0.376381 0.224846 -0.898767
vn -0.376381 0.224846 -0.898767
vn -0.908663 0.198886 -0.367118
vn -0.908663 0.198886 -0.367118
vn -0.908663 0.198886 -0.367118
vn -0.908663 0.198886 -0.367118
vn -0.908663 0.162173 0.384748
vn -0.908663 0.162173 0.384748
vn -0.908663 0.162173 0.384748
vn -0.908663 0.162173 0.384748
vn -0.325635 0.486323 0.810834
vn -0.325635 0.486323 0.810834
vn -0.325635 0.486323 0.810834
vn -0.325635 0.486323 0.810834
vn 0.325635 0.486323 0.810834
vn 0.325635 0.486323 0.810834
vn 0.325635 0.486323 0.810834
vn 0.325635 0.486323 0.810834
vn 0.786151 0.508783 0.350866
vn 0.786151 0.508783 0.350866
vn 0.786151 0.508783 0.350866
vn 0.786151 0.508783 0.350866
vn 0.786151 0.540545 -0.299628
vn 0.786151 0.540545 -0.299628
vn 0.786151 0.540545 -0.299628
vn 0.786151 0.540545 -0.299628
vn 0.325634 0.563005 -0.759597
vn 0.325634 0.563005 -0.759597
vn 0.325634 0.563005 -0.759597
vn 0.325634 0.563005 -0.759597
vn -0.325634 0.563005 -0.759597
vn -0.325634 0.563005 -0.759597
vn -0.325634 0.563005 -0.759597
vn -0.325634 0.563005 -0.759597
vn -0.786151 0.540545 -0.299628
vn -0.786151 0.540545 -0.299628
vn -0.786151 0.540546 -0.299629
vn -0.786151 0.540546 -0.299629
vn -0.786151 0.508783 0.350866
vn -0.786151 0.508783 0.350866
vn -0.786151 0.508783 0.350866
vn -0.786151 0.508783 0.350866
vn -0.224263 0.782922 0.580293
vn -0.224263 0.782922 0.580293
vn -0.224263 0.782922 0.580293
vn -0.224263 0.782922 0.580293
vn 0.224263 0.782922 0.580293
vn 0.224263 0.782922 0.580293
vn 0.224263 0.782922 0.580293
vn 0.224263 0.782922 0.580293
vn 0.541419 0.798389 0.263515
vn 0.541419 0.798389 0.263515
vn 0.541419 0.798389 0.263515
vn 0.541419 0.798389 0.263515
vn 0.541419 0.820264 -0.184478
vn 0.541419 0.820264 -0.184478
vn 0.541419 0.820264 -0.184478
vn 0.541419 0.820264 -0.184478
vn 0.224263 0.835732 -0.501257
vn 0.224263 0.835732 -0.501257
vn 0.224263 0.835732 -0.501257
vn 0.224263 0.835732 -0.501257
vn -0.224263 0.835732 -0.501257
vn -0.224263 0.835732 -0.501257
vn -0.224263 0.835732 -0.501257
vn -0.224263 0.835732 -0.501257
vn -0.541419 0.820264 -0.184478
vn -0.541419 0.820264 -0.184478
vn -0.541419 0.820264 -0.184478
vn -0.541419 0.820264 -0.184478
vn -0.541419 0.798389 0.263514
vn -0.541419 0.798389 0.263514
vn -0.541419 0.798389 0.263514
vn -0.541419 0.798389 0.263514
vn -0.080547 0.966951 0.241903
vn -0.080547 0.966951 0.241903
vn -0.080547 0.966951 0.241903
vn 0.080547 0.966951 0.241903
vn 0.080547 0.966951 0.241903
vn 0.080547 0.966951 0.241903
vn 0.194456 0.972507 0.128129
vn 0.194456 0.972507 0.128129
vn 0.194456 0.972507 0.128129
vn 0.194457 0.980363 -0.032773
vn 0.194457 0.980363 -0.032773
vn 0.194457 0.980363 -0.032773
vn 0.080547 0.985919 -0.146548
vn 0.080547 0.985919 -0.146548
vn 0.080547 0.985919 -0.146548
vn -0.080547 0.985919 -0.146548
vn -0.080547 0.985919 -0.146548
vn -0.080547 0.985919 -0.146548
vn -0.194457 0.980363 -0.032772
vn -0.194457 0.980363 -0.032772
vn -0.194457 0.980363 -0.032772
vn -0.194456 0.972507 0.128128
vn -0.194456 0.972507 0.128128
vn -0.194456 0.972507 0.128128
s off
g car
usemtl initialShadingGroup
f 1/1/1 2/2/2 4/4/3 3/3/4
f 3/3/5 4/4/6 5/5/7
f 5/5/8 2/7/9 1/6/10
f 2/2/11 5/8/12 4/4/13
f 5/9/14 1/1/15 3/3/16
f 6/10/17 7/11/18 15/12/19 14/13/20
f 7/11/21 8/14/22 16/15/23 15/12/24
f 8/14/25 9/16/26 17/17/27 16/15/28
f 9/16/29 10/18/30 18/19/31 17/17/32
f 10/18/33 11/20/34 19/21/35 18/19/36
f 11/20/37 12/22/38 20/23/39 19/21/40
f 12/22/41 13/24/42 21/25/43 20/23/44
f 13/24/45 6/26/46 14/27/47 21/25/48
f 14/13/49 15/12/50 23/28/51 22/29/52
f 15/12/53 16/15/54 24/30/55 23/28/56
f 16/15/57 17/17/58 25/31/59 24/30/60
f 17/17/61 18/19/62 26/32/63 25/31/64
f 18/19/65 19/21/66 27/33/67 26/32/68
f 19/21/69 20/23/70 28/34/71 27/33/72
f 20/23/73 21/25/74 29/35/75 28/34/76
f 21/25/77 14/27/78 22/36/79 29/35/80
f 22/29/81 23/28/82 31/37/83 30/38/84
f 23/28/85 24/30/86 32/39/87 31/37/88
f 24/30/89 25/31/90 33/40/91 32/39/92
f 25/31/93 26/32/94 34/41/95 33/40/96
f 26/32/97 27/33/98 35/42/99 34/41/100
f 27/33/101 28/34/102 36/43/103 35/42/104
f 28/34/105 29/35/106 37/44/107 36/43/108
f 29/35/109 22/36/110 30/45/111 37/44/112
f 30/38/113 31/37/114 38/46/115
f 31/37/116 32/39/117 38/47/118
f 32/39/119 33/40/120 38/48/121
f 33/40/122 34/41/123 38/49/124
f 34/41/125 35/42/126 38/50/127
f 35/42/128 36/43/129 38/51/130
f 36/43/131 37/44/132 38/52/133
f 37/44/134 30/45/135 38/53/136
