# This file uses meters as units for non-parametric coordinates.

mtllib Fog.mtl
g default
v -168094.926620 -0.000000 160053.117597
v -134475.941296 -0.000000 160053.117597
v -100856.955972 -0.000000 160053.117597
v -67237.970648 -0.000000 160053.117597
v -33618.985324 -0.000000 160053.117597
v 0.000000 -0.000000 160053.117597
v 33618.985324 -0.000000 160053.117597
v 67237.970648 -0.000000 160053.117597
v 100856.955972 -0.000000 160053.117597
v 134475.941296 -0.000000 160053.117597
v 168094.926620 -0.000000 160053.117597
v -168094.926620 -0.000000 128042.492662
v -134475.941296 -0.000000 128042.492662
v -100856.955972 -0.000000 128042.492662
v -67237.970648 -0.000000 128042.492662
v -33618.985324 -0.000000 128042.492662
v 0.000000 -0.000000 128042.492662
v 33618.985324 -0.000000 128042.492662
v 67237.970648 -0.000000 128042.492662
v 100856.955972 -0.000000 128042.492662
v 134475.941296 -0.000000 128042.492662
v 168094.926620 -0.000000 128042.492662
v -168094.926620 -0.000000 96031.867727
v -134475.941296 -0.000000 96031.867727
v -100856.955972 -0.000000 96031.867727
v -67237.970648 -0.000000 96031.867727
v -33618.985324 -0.000000 96031.867727
v 0.000000 -0.000000 96031.867727
v 33618.985324 -0.000000 96031.867727
v 67237.970648 -0.000000 96031.867727
v 100856.955972 -0.000000 96031.867727
v 134475.941296 -0.000000 96031.867727
v 168094.926620 -0.000000 96031.867727
v -168094.926620 -0.000000 64021.255003
v -134475.941296 -0.000000 64021.255003
v -100856.955972 -0.000000 64021.255003
v -67237.970648 -0.000000 64021.255003
v -33618.985324 -0.000000 64021.255003
v 0.000000 -0.000000 64021.255003
v 33618.985324 -0.000000 64021.255003
v 67237.970648 -0.000000 64021.255003
v 100856.955972 -0.000000 64021.255003
v 134475.941296 -0.000000 64021.255003
v 168094.926620 -0.000000 64021.255003
v -168094.926620 -0.000000 32010.630068
v -134475.941296 -0.000000 32010.630068
v -100856.955972 -0.000000 32010.630068
v -67237.970648 -0.000000 32010.630068
v -33618.985324 -0.000000 32010.630068
v 0.000000 -0.000000 32010.630068
v 33618.985324 -0.000000 32010.630068
v 67237.970648 -0.000000 32010.630068
v 100856.955972 -0.000000 32010.630068
v 134475.941296 -0.000000 32010.630068
v 168094.926620 -0.000000 32010.630068
v -168094.926620 0.000000 0.005133
v -134475.941296 0.000000 0.005133
v -100856.955972 0.000000 0.005133
v -67237.970648 0.000000 0.005133
v -33618.985324 0.000000 0.005133
v 0.000000 0.000000 0.005133
v 33618.985324 0.000000 0.005133
v 67237.970648 0.000000 0.005133
v 100856.955972 0.000000 0.005133
v 134475.941296 0.000000 0.005133
v 168094.926620 0.000000 0.005133
v -168094.926620 0.000000 -32010.619802
v -134475.941296 0.000000 -32010.619802
v -100856.955972 0.000000 -32010.619802
v -67237.970648 0.000000 -32010.619802
v -33618.985324 0.000000 -32010.619802
v 0.000000 0.000000 -32010.619802
v 33618.985324 0.000000 -32010.619802
v 67237.970648 0.000000 -32010.619802
v 100856.955972 0.000000 -32010.619802
v 134475.941296 0.000000 -32010.619802
v 168094.926620 0.000000 -32010.619802
v -168094.926620 0.000000 -64021.244737
v -134475.941296 0.000000 -64021.244737
v -100856.955972 0.000000 -64021.244737
v -67237.970648 0.000000 -64021.244737
v -33618.985324 0.000000 -64021.244737
v 0.000000 0.000000 -64021.244737
v 33618.985324 0.000000 -64021.244737
v 67237.970648 0.000000 -64021.244737
v 100856.955972 0.000000 -64021.244737
v 134475.941296 0.000000 -64021.244737
v 168094.926620 0.000000 -64021.244737
v -168094.926620 0.000000 -96031.869672
v -134475.941296 0.000000 -96031.869672
v -100856.955972 0.000000 -96031.869672
v -67237.970648 0.000000 -96031.869672
v -33618.985324 0.000000 -96031.869672
v 0.000000 0.000000 -96031.869672
v 33618.985324 0.000000 -96031.869672
v 67237.970648 0.000000 -96031.869672
v 100856.955972 0.000000 -96031.869672
v 134475.941296 0.000000 -96031.869672
v 168094.926620 0.000000 -96031.869672
v -168094.926620 0.000000 -128042.494607
v -134475.941296 0.000000 -128042.494607
v -100856.955972 0.000000 -128042.494607
v -67237.970648 0.000000 -128042.494607
v -33618.985324 0.000000 -128042.494607
v 0.000000 0.000000 -128042.494607
v 33618.985324 0.000000 -128042.494607
v 67237.970648 0.000000 -128042.494607
v 100856.955972 0.000000 -128042.494607
v 134475.941296 0.000000 -128042.494607
v 168094.926620 0.000000 -128042.494607
v -168094.926620 0.000000 -160053.119542
v -134475.941296 0.000000 -160053.119542
v -100856.955972 0.000000 -160053.119542
v -67237.970648 0.000000 -160053.119542
v -33618.985324 0.000000 -160053.119542
v 0.000000 0.000000 -160053.119542
v 33618.985324 0.000000 -160053.119542
v 67237.970648 0.000000 -160053.119542
v 100856.955972 0.000000 -160053.119542
v 134475.941296 0.000000 -160053.119542
v 168094.926620 0.000000 -160053.119542
vt 0.000000 0.000000
vt 0.100000 0.000000
vt 0.200000 0.000000
vt 0.300000 0.000000
vt 0.400000 0.000000
vt 0.500000 0.000000
vt 0.600000 0.000000
vt 0.700000 0.000000
vt 0.800000 0.000000
vt 0.900000 0.000000
vt 1.000000 0.000000
vt 0.000000 0.100000
vt 0.100000 0.100000
vt 0.200000 0.100000
vt 0.300000 0.100000
vt 0.400000 0.100000
vt 0.500000 0.100000
vt 0.600000 0.100000
vt 0.700000 0.100000
vt 0.800000 0.100000
vt 0.900000 0.100000
vt 1.000000 0.100000
vt 0.000000 0.200000
vt 0.100000 0.200000
vt 0.200000 0.200000
vt 0.300000 0.200000
vt 0.400000 0.200000
vt 0.500000 0.200000
vt 0.600000 0.200000
vt 0.700000 0.200000
vt 0.800000 0.200000
vt 0.900000 0.200000
vt 1.000000 0.200000
vt 0.000000 0.300000
vt 0.100000 0.300000
vt 0.200000 0.300000
vt 0.300000 0.300000
vt 0.400000 0.300000
vt 0.500000 0.300000
vt 0.600000 0.300000
vt 0.700000 0.300000
vt 0.800000 0.300000
vt 0.900000 0.300000
vt 1.000000 0.300000
vt 0.000000 0.400000
vt 0.100000 0.400000
vt 0.200000 0.400000
vt 0.300000 0.400000
vt 0.400000 0.400000
vt 0.500000 0.400000
vt 0.600000 0.400000
vt 0.700000 0.400000
vt 0.800000 0.400000
vt 0.900000 0.400000
vt 1.000000 0.400000
vt 0.000000 0.500000
vt 0.100000 0.500000
vt 0.200000 0.500000
vt 0.300000 0.500000
vt 0.400000 0.500000
vt 0.500000 0.500000
vt 0.600000 0.500000
vt 0.700000 0.500000
vt 0.800000 0.500000
vt 0.900000 0.500000
vt 1.000000 0.500000
vt 0.000000 0.600000
vt 0.100000 0.600000
vt 0.200000 0.600000
vt 0.300000 0.600000
vt 0.400000 0.600000
vt 0.500000 0.600000
vt 0.600000 0.600000
vt 0.700000 0.600000
vt 0.800000 0.600000
vt 0.900000 0.600000
vt 1.000000 0.600000
vt 0.000000 0.700000
vt 0.100000 0.700000
vt 0.200000 0.700000
vt 0.300000 0.700000
vt 0.400000 0.700000
vt 0.500000 0.700000
vt 0.600000 0.700000
vt 0.700000 0.700000
vt 0.800000 0.700000
vt 0.900000 0.700000
vt 1.000000 0.700000
vt 0.000000 0.800000
vt 0.100000 0.800000
vt 0.200000 0.800000
vt 0.300000 0.800000
vt 0.400000 0.800000
vt 0.500000 0.800000
vt 0.600000 0.800000
vt 0.700000 0.800000
vt 0.800000 0.800000
vt 0.900000 0.800000
vt 1.000000 0.800000
vt 0.000000 0.900000
vt 0.100000 0.900000
vt 0.200000 0.900000
vt 0.300000 0.900000
vt 0.400000 0.900000
vt 0.500000 0.900000
vt 0.600000 0.900000
vt 0.700000 0.900000
vt 0.800000 0.900000
vt 0.900000 0.900000
vt 1.000000 0.900000
vt 0.000000 1.000000
vt 0.100000 1.000000
vt 0.200000 1.000000
vt 0.300000 1.000000
vt 0.400000 1.000000
vt 0.500000 1.000000
vt 0.600000 1.000000
vt 0.700000 1.000000
vt 0.800000 1.000000
vt 0.900000 1.000000
vt 1.000000 1.000000
vn 0.000000 -1.000000 -0.000000
vn 0.000000 -1.000000 -0.000000
vn 0.000000 -1.000000 -0.000000
vn 0.000000 -1.000000 -0.000000
vn 0.000000 -1.000000 -0.000000
vn 0.000000 -1.000000 -0.000000
vn 0.000000 -1.000000 -0.000000
vn 0.000000 -1.000000 -0.000000
vn 0.000000 -1.000000 -0.000000
vn 0.000000 -1.000000 -0.000000
vn 0.000000 -1.000000 -0.000000
vn 0.000000 -1.000000 -0.000000
vn 0.000000 -1.000000 -0.000000
vn 0.000000 -1.000000 -0.000000
vn 0.000000 -1.000000 -0.000000
vn 0.000000 -1.000000 -0.000000
vn 0.000000 -1.000000 -0.000000
vn 0.000000 -1.000000 -0.000000
vn 0.000000 -1.000000 -0.000000
vn 0.000000 -1.000000 -0.000000
vn 0.000000 -1.000000 -0.000000
vn 0.000000 -1.000000 -0.000000
vn 0.000000 -1.000000 -0.000000
vn 0.000000 -1.000000 -0.000000
vn 0.000000 -1.000000 -0.000000
vn 0.000000 -1.000000 -0.000000
vn 0.000000 -1.000000 -0.000000
vn 0.000000 -1.000000 -0.000000
vn 0.000000 -1.000000 -0.000000
vn 0.000000 -1.000000 -0.000000
vn 0.000000 -1.000000 -0.000000
vn 0.000000 -1.000000 -0.000000
vn 0.000000 -1.000000 -0.000000
vn 0.000000 -1.000000 -0.000000
vn 0.000000 -1.000000 -0.000000
vn 0.000000 -1.000000 -0.000000
vn 0.000000 -1.000000 -0.000000
vn 0.000000 -1.000000 -0.000000
vn 0.000000 -1.000000 -0.000000
vn 0.000000 -1.000000 -0.000000
vn 0.000000 -1.000000 -0.000000
vn 0.000000 -1.000000 -0.000000
vn 0.000000 -1.000000 -0.000000
vn 0.000000 -1.000000 -0.000000
vn 0.000000 -1.000000 -0.000000
vn 0.000000 -1.000000 -0.000000
vn 0.000000 -1.000000 -0.000000
vn 0.000000 -1.000000 -0.000000
vn 0.000000 -1.000000 -0.000000
vn 0.000000 -1.000000 -0.000000
vn 0.000000 -1.000000 -0.000000
vn 0.000000 -1.000000 -0.000000
vn 0.000000 -1.000000 -0.000000
vn 0.000000 -1.000000 -0.000000
vn 0.000000 -1.000000 -0.000000
vn 0.000000 -1.000000 -0.000000
vn 0.000000 -1.000000 -0.000000
vn 0.000000 -1.000000 -0.000000
vn 0.000000 -1.000000 -0.000000
vn 0.000000 -1.000000 -0.000000
vn 0.000000 -1.000000 -0.000000
vn 0.000000 -1.000000 -0.000000
vn 0.000000 -1.000000 -0.000000
vn 0.000000 -1.000000 -0.000000
vn 0.000000 -1.000000 -0.000000
vn 0.000000 -1.000000 -0.000000
vn 0.000000 -1.000000 -0.000000
vn 0.000000 -1.000000 -0.000000
vn 0.000000 -1.000000 -0.000000
vn 0.000000 -1.000000 -0.000000
vn 0.000000 -1.000000 -0.000000
vn 0.000000 -1.000000 -0.000000
vn 0.000000 -1.000000 -0.000000
vn 0.000000 -1.000000 -0.000000
vn 0.000000 -1.000000 -0.000000
vn 0.000000 -1.000000 -0.000000
vn 0.000000 -1.000000 -0.000000
vn 0.000000 -1.000000 -0.000000
vn 0.000000 -1.000000 -0.000000
vn 0.000000 -1.000000 -0.000000
vn 0.000000 -1.000000 -0.000000
vn 0.000000 -1.000000 -0.000000
vn 0.000000 -1.000000 -0.000000
vn 0.000000 -1.000000 -0.000000
vn 0.000000 -1.000000 -0.000000
vn 0.000000 -1.000000 -0.000000
vn 0.000000 -1.000000 -0.000000
vn 0.000000 -1.000000 -0.000000
vn 0.000000 -1.000000 -0.000000
vn 0.000000 -1.000000 -0.000000
vn 0.000000 -1.000000 -0.000000
vn 0.000000 -1.000000 -0.000000
vn 0.000000 -1.000000 -0.000000
vn 0.000000 -1.000000 -0.000000
vn 0.000000 -1.000000 -0.000000
vn 0.000000 -1.000000 -0.000000
vn 0.000000 -1.000000 -0.000000
vn 0.000000 -1.000000 -0.000000
vn 0.000000 -1.000000 -0.000000
vn 0.000000 -1.000000 -0.000000
vn 0.000000 -1.000000 -0.000000
vn 0.000000 -1.000000 -0.000000
vn 0.000000 -1.000000 -0.000000
vn 0.000000 -1.000000 -0.000000
vn 0.000000 -1.000000 -0.000000
vn 0.000000 -1.000000 -0.000000
vn 0.000000 -1.000000 -0.000000
vn 0.000000 -1.000000 -0.000000
vn 0.000000 -1.000000 -0.000000
vn 0.000000 -1.000000 -0.000000
vn 0.000000 -1.000000 -0.000000
vn 0.000000 -1.000000 -0.000000
vn 0.000000 -1.000000 -0.000000
vn 0.000000 -1.000000 -0.000000
vn 0.000000 -1.000000 -0.000000
vn 0.000000 -1.000000 -0.000000
vn 0.000000 -1.000000 -0.000000
vn 0.000000 -1.000000 -0.000000
vn 0.000000 -1.000000 -0.000000
vn 0.000000 -1.000000 -0.000000
vn 0.000000 -1.000000 -0.000000
s 1
g pPlane5 pPlane3 v_mist
usemtl lambert2SG
f 1/1/1 12/12/2 13/13/3 2/2/4
f 2/2/4 13/13/3 14/14/5 3/3/6
f 3/3/6 14/14/5 15/15/7 4/4/8
f 4/4/8 15/15/7 16/16/9 5/5/10
f 5/5/10 16/16/9 17/17/11 6/6/12
f 6/6/12 17/17/11 18/18/13 7/7/14
f 7/7/14 18/18/13 19/19/15 8/8/16
f 8/8/16 19/19/15 20/20/17 9/9/18
f 9/9/18 20/20/17 21/21/19 10/10/20
f 10/10/20 21/21/19 22/22/21 11/11/22
f 12/12/2 23/23/23 24/24/24 13/13/3
f 13/13/3 24/24/24 25/25/25 14/14/5
f 14/14/5 25/25/25 26/26/26 15/15/7
f 15/15/7 26/26/26 27/27/27 16/16/9
f 16/16/9 27/27/27 28/28/28 17/17/11
f 17/17/11 28/28/28 29/29/29 18/18/13
f 18/18/13 29/29/29 30/30/30 19/19/15
f 19/19/15 30/30/30 31/31/31 20/20/17
f 20/20/17 31/31/31 32/32/32 21/21/19
f 21/21/19 32/32/32 33/33/33 22/22/21
f 23/23/23 34/34/34 35/35/35 24/24/24
f 24/24/24 35/35/35 36/36/36 25/25/25
f 25/25/25 36/36/36 37/37/37 26/26/26
f 26/26/26 37/37/37 38/38/38 27/27/27
f 27/27/27 38/38/38 39/39/39 28/28/28
f 28/28/28 39/39/39 40/40/40 29/29/29
f 29/29/29 40/40/40 41/41/41 30/30/30
f 30/30/30 41/41/41 42/42/42 31/31/31
f 31/31/31 42/42/42 43/43/43 32/32/32
f 32/32/32 43/43/43 44/44/44 33/33/33
f 34/34/34 45/45/45 46/46/46 35/35/35
f 35/35/35 46/46/46 47/47/47 36/36/36
f 36/36/36 47/47/47 48/48/48 37/37/37
f 37/37/37 48/48/48 49/49/49 38/38/38
f 38/38/38 49/49/49 50/50/50 39/39/39
f 39/39/39 50/50/50 51/51/51 40/40/40
f 40/40/40 51/51/51 52/52/52 41/41/41
f 41/41/41 52/52/52 53/53/53 42/42/42
f 42/42/42 53/53/53 54/54/54 43/43/43
f 43/43/43 54/54/54 55/55/55 44/44/44
f 45/45/45 56/56/56 57/57/57 46/46/46
f 46/46/46 57/57/57 58/58/58 47/47/47
f 47/47/47 58/58/58 59/59/59 48/48/48
f 48/48/48 59/59/59 60/60/60 49/49/49
f 49/49/49 60/60/60 61/61/61 50/50/50
f 50/50/50 61/61/61 62/62/62 51/51/51
f 51/51/51 62/62/62 63/63/63 52/52/52
f 52/52/52 63/63/63 64/64/64 53/53/53
f 53/53/53 64/64/64 65/65/65 54/54/54
f 54/54/54 65/65/65 66/66/66 55/55/55
f 56/56/56 67/67/67 68/68/68 57/57/57
f 57/57/57 68/68/68 69/69/69 58/58/58
f 58/58/58 69/69/69 70/70/70 59/59/59
f 59/59/59 70/70/70 71/71/71 60/60/60
f 60/60/60 71/71/71 72/72/72 61/61/61
f 61/61/61 72/72/72 73/73/73 62/62/62
f 62/62/62 73/73/73 74/74/74 63/63/63
f 63/63/63 74/74/74 75/75/75 64/64/64
f 64/64/64 75/75/75 76/76/76 65/65/65
f 65/65/65 76/76/76 77/77/77 66/66/66
f 67/67/67 78/78/78 79/79/79 68/68/68
f 68/68/68 79/79/79 80/80/80 69/69/69
f 69/69/69 80/80/80 81/81/81 70/70/70
f 70/70/70 81/81/81 82/82/82 71/71/71
f 71/71/71 82/82/82 83/83/83 72/72/72
f 72/72/72 83/83/83 84/84/84 73/73/73
f 73/73/73 84/84/84 85/85/85 74/74/74
f 74/74/74 85/85/85 86/86/86 75/75/75
f 75/75/75 86/86/86 87/87/87 76/76/76
f 76/76/76 87/87/87 88/88/88 77/77/77
f 78/78/78 89/89/89 90/90/90 79/79/79
f 79/79/79 90/90/90 91/91/91 80/80/80
f 80/80/80 91/91/91 92/92/92 81/81/81
f 81/81/81 92/92/92 93/93/93 82/82/82
f 82/82/82 93/93/93 94/94/94 83/83/83
f 83/83/83 94/94/94 95/95/95 84/84/84
f 84/84/84 95/95/95 96/96/96 85/85/85
f 85/85/85 96/96/96 97/97/97 86/86/86
f 86/86/86 97/97/97 98/98/98 87/87/87
f 87/87/87 98/98/98 99/99/99 88/88/88
f 89/89/89 100/100/100 101/101/101 90/90/90
f 90/90/90 101/101/101 102/102/102 91/91/91
f 91/91/91 102/102/102 103/103/103 92/92/92
f 92/92/92 103/103/103 104/104/104 93/93/93
f 93/93/93 104/104/104 105/105/105 94/94/94
f 94/94/94 105/105/105 106/106/106 95/95/95
f 95/95/95 106/106/106 107/107/107 96/96/96
f 96/96/96 107/107/107 108/108/108 97/97/97
f 97/97/97 108/108/108 109/109/109 98/98/98
f 98/98/98 109/109/109 110/110/110 99/99/99
f 100/100/100 111/111/111 112/112/112 101/101/101
f 101/101/101 112/112/112 113/113/113 102/102/102
f 102/102/102 113/113/113 114/114/114 103/103/103
f 103/103/103 114/114/114 115/115/115 104/104/104
f 104/104/104 115/115/115 116/116/116 105/105/105
f 105/105/105 116/116/116 117/117/117 106/106/106
f 106/106/106 117/117/117 118/118/118 107/107/107
f 107/107/107 118/118/118 119/119/119 108/108/108
f 108/108/108 119/119/119 120/120/120 109/109/109
f 109/109/109 120/120/120 121/121/121 110/110/110
