# This file uses meters as units for non-parametric coordinates.

mtllib Billboards.mtl
g default
v 7414.995117 9765.402344 3060.171875
v 7414.995117 3786.406738 3060.171875
v 7414.995117 9765.401367 -933.175781
v 7414.995117 3786.406982 -933.175781
v 7548.850586 3364.396729 579.933594
v 7548.850586 -3364.444092 579.933594
v 7548.850586 3364.396973 5408.894531
v 7548.850586 -3364.444336 5408.894531
v 4261.936035 2969.324463 8977.957031
v 4261.936035 -2969.371826 8977.957031
v 4261.936035 2969.324463 12801.777344
v 4261.936035 -2969.371826 12801.777344
v 8716.937500 4641.064453 -14911.425781
v 8716.937500 -2087.776611 -14911.425781
v 8716.937500 4641.064453 -10651.605469
v 8716.937500 -2087.776611 -10651.605469
v 5064.787109 5030.053711 13821.636719
v 5064.787109 -1698.787354 13821.636719
v 9497.165039 5030.053711 13821.636719
v 9497.165039 -1698.787354 13821.636719
v 5702.526367 12066.216797 20783.250000
v 5702.526367 5337.376465 20783.250000
v 6463.540039 12066.216797 24326.574219
v 6463.540039 5337.376465 24326.574219
v 6242.271484 274.989746 16616.691406
v 6242.271484 -4027.836426 16616.691406
v 6242.271484 274.989746 20007.832031
v 6242.271484 -4027.836426 20007.832031
v 9251.909180 3364.396973 -10237.582031
v 9251.909180 -3364.444336 -10237.582031
v 14525.202148 3364.396729 -10237.582031
v 14525.202148 -3364.444092 -10237.582031
v 5734.516602 2480.538330 5724.402344
v 5734.516602 2480.538330 12262.566406
v 5734.516602 -2480.585693 5724.402344
v 5734.516602 -2480.585693 12262.566406
v 9578.292969 2005.603271 -16347.136719
v 9578.292969 2005.603271 -24326.574219
v 9578.292969 -2005.650391 -16347.136719
v 9578.292969 -2005.650391 -24326.574219
v -8178.456543 6056.610352 11326.488281
v -8178.456543 77.615479 11326.488281
v -8178.456543 6056.610352 15319.832031
v -8178.456543 77.615723 15319.832031
v -11028.598633 3024.642090 -17730.246094
v -11028.598633 -3704.198730 -17730.246094
v -11028.598633 3024.642334 -22559.207031
v -11028.598633 -3704.198975 -22559.207031
v -12785.679688 3409.541504 18753.343750
v -12785.679688 -738.424805 18753.343750
v -10114.877930 3409.541504 18753.343750
v -10114.877930 -738.424805 18753.343750
v -13467.533203 9345.530273 18767.949219
v -13467.533203 4202.197266 18767.949219
v -10211.449219 9345.530273 18767.949219
v -10211.449219 4202.197266 18767.949219
v -7631.774414 3540.365234 1289.105469
v -7631.774414 -3188.475586 1289.105469
v -7670.046875 3540.365234 -3143.105469
v -7670.046875 -3188.475586 -3143.105469
v -7736.881348 4567.015137 -7829.179688
v -7736.881348 -4464.198730 -7829.179688
v -7736.881348 4567.015137 -12693.355469
v -7736.881348 -4464.198730 -12693.355469
v -8557.827637 274.989746 13767.589844
v -8557.827637 -4027.836426 13767.589844
v -8557.827637 274.989746 10376.449219
v -8557.827637 -4027.836426 10376.449219
v -14525.202148 5226.763184 -7130.437500
v -7987.036621 5226.763184 -7130.437500
v -14525.202148 265.639160 -7130.437500
v -7987.036621 265.639160 -7130.437500
v -7631.668945 12690.418945 18064.003906
v -7631.668945 8288.209961 18064.003906
v -5260.658203 12690.418945 18064.003906
v -5260.658203 8288.209961 18064.003906
v 2064.658691 12690.418945 18064.003906
v 2064.658691 8288.209961 18064.003906
v 4435.668945 12690.418945 18064.003906
v 4435.668945 8288.209961 18064.003906
vt 0.018572 0.000000
vt 0.098698 0.000000
vt 0.098698 1.000000
vt 0.018572 1.000000
vt 0.238492 0.000000
vt 0.324587 0.000000
vt 0.324587 1.000000
vt 0.238492 1.000000
vt 0.335939 0.000000
vt 0.413184 0.000000
vt 0.413184 1.000000
vt 0.335939 1.000000
vt 0.423646 0.000000
vt 0.499594 0.000000
vt 0.499594 1.000000
vt 0.423646 1.000000
vt 0.511893 0.000000
vt 0.590918 0.000000
vt 0.590918 1.000000
vt 0.511893 1.000000
vt 0.726655 0.000000
vt 0.791269 0.000000
vt 0.791269 1.000000
vt 0.726655 1.000000
vt 0.796904 0.000000
vt 0.891453 0.000000
vt 0.891453 1.000000
vt 0.796904 1.000000
vt 0.894883 0.000000
vt 0.988900 0.000000
vt 0.988900 1.000000
vt 0.894883 1.000000
vt 0.112276 0.126257
vt 0.228844 0.126257
vt 0.228844 0.863549
vt 0.112276 0.863549
vt 0.601598 0.252914
vt 0.718195 0.252914
vt 0.718195 0.741490
vt 0.601598 0.741490
vt 0.018572 0.000000
vt 0.098698 0.000000
vt 0.098698 1.000000
vt 0.018572 1.000000
vt 0.238492 0.000000
vt 0.324587 0.000000
vt 0.324587 1.000000
vt 0.238492 1.000000
vt 0.335939 0.000000
vt 0.413184 0.000000
vt 0.413184 1.000000
vt 0.335939 1.000000
vt 0.423646 0.000000
vt 0.499594 0.000000
vt 0.499594 1.000000
vt 0.423646 1.000000
vt 0.511893 0.000000
vt 0.590918 0.000000
vt 0.590918 1.000000
vt 0.511893 1.000000
vt 0.726655 0.000000
vt 0.791269 0.000000
vt 0.791269 1.000000
vt 0.726655 1.000000
vt 0.796904 0.000000
vt 0.891453 0.000000
vt 0.891453 1.000000
vt 0.796904 1.000000
vt 0.112276 0.126257
vt 0.228844 0.126257
vt 0.228844 0.863549
vt 0.112276 0.863549
vt 0.726655 0.000000
vt 0.791269 0.000000
vt 0.791269 1.000000
vt 0.726655 1.000000
vt 0.726655 0.000000
vt 0.791269 0.000000
vt 0.791269 1.000000
vt 0.726655 1.000000
vn -1.000000 0.000000 0.000000
vn -1.000000 0.000000 0.000000
vn -1.000000 0.000000 0.000000
vn -1.000000 0.000000 0.000000
vn -1.000000 0.000000 0.000000
vn -1.000000 0.000000 0.000000
vn -1.000000 0.000000 0.000000
vn -1.000000 0.000000 0.000000
vn -1.000000 0.000000 0.000000
vn -1.000000 0.000000 0.000000
vn -1.000000 0.000000 0.000000
vn -1.000000 0.000000 0.000000
vn -1.000000 0.000000 0.000000
vn -1.000000 0.000000 0.000000
vn -1.000000 0.000000 0.000000
vn -1.000000 0.000000 0.000000
vn 0.000000 0.000000 1.000000
vn 0.000000 0.000000 1.000000
vn 0.000000 0.000000 1.000000
vn 0.000000 0.000000 1.000000
vn -0.977705 0.000000 0.209985
vn -0.977705 0.000000 0.209985
vn -0.977705 0.000000 0.209985
vn -0.977705 0.000000 0.209985
vn -1.000000 0.000000 0.000000
vn -1.000000 0.000000 0.000000
vn -1.000000 0.000000 0.000000
vn -1.000000 0.000000 0.000000
vn 0.000001 0.000000 1.000000
vn 0.000001 0.000000 1.000000
vn 0.000001 0.000000 1.000000
vn 0.000001 0.000000 1.000000
vn -1.000000 0.000000 0.000000
vn -1.000000 0.000000 0.000000
vn -1.000000 0.000000 0.000000
vn -1.000000 0.000000 0.000000
vn -1.000000 0.000000 0.000000
vn -1.000000 0.000000 0.000000
vn -1.000000 0.000000 0.000000
vn -1.000000 0.000000 0.000000
vn 1.000000 0.000000 0.000000
vn 1.000000 0.000000 0.000000
vn 1.000000 0.000000 0.000000
vn 1.000000 0.000000 0.000000
vn 1.000000 0.000000 0.000000
vn 1.000000 0.000000 0.000000
vn 1.000000 0.000000 0.000000
vn 1.000000 0.000000 0.000000
vn 0.000000 0.000000 1.000000
vn 0.000000 0.000000 1.000000
vn 0.000000 0.000000 1.000000
vn 0.000000 0.000000 1.000000
vn 0.000000 0.000000 1.000000
vn 0.000000 0.000000 1.000000
vn 0.000000 0.000000 1.000000
vn 0.000000 0.000000 1.000000
vn 0.999963 0.000000 -0.008635
vn 0.999963 0.000000 -0.008635
vn 0.999963 0.000000 -0.008635
vn 0.999963 0.000000 -0.008635
vn 1.000000 0.000000 0.000000
vn 1.000000 0.000000 0.000000
vn 1.000000 0.000000 0.000000
vn 1.000000 0.000000 0.000000
vn 1.000000 0.000000 0.000000
vn 1.000000 0.000000 0.000000
vn 1.000000 0.000000 0.000000
vn 1.000000 0.000000 0.000000
vn 0.000000 0.000000 1.000000
vn 0.000000 0.000000 1.000000
vn 0.000000 0.000000 1.000000
vn 0.000000 0.000000 1.000000
vn 0.000000 0.000000 1.000000
vn 0.000000 0.000000 1.000000
vn 0.000000 0.000000 1.000000
vn 0.000000 0.000000 1.000000
vn 0.000000 0.000000 1.000000
vn 0.000000 0.000000 1.000000
vn 0.000000 0.000000 1.000000
vn 0.000000 0.000000 1.000000
s off
g billboards billboards1
usemtl surfaceShader23SG
f 4/1/1 2/2/2 1/3/3 3/4/4
f 6/5/5 8/6/6 7/7/7 5/8/8
f 10/9/9 12/10/10 11/11/11 9/12/12
f 14/13/13 16/14/14 15/15/15 13/16/16
f 18/17/17 20/18/18 19/19/19 17/20/20
f 22/21/21 24/22/22 23/23/23 21/24/24
f 26/25/25 28/26/26 27/27/27 25/28/28
f 30/29/29 32/30/30 31/31/31 29/32/32
f 35/33/33 36/34/34 34/35/35 33/36/36
f 40/37/37 39/38/38 37/39/39 38/40/40
f 44/41/41 42/42/42 41/43/43 43/44/44
f 46/45/45 48/46/46 47/47/47 45/48/48
f 50/49/49 52/50/50 51/51/51 49/52/52
f 54/53/53 56/54/54 55/55/55 53/56/56
f 58/57/57 60/58/58 59/59/59 57/60/60
f 62/61/61 64/62/62 63/63/63 61/64/64
f 66/65/65 68/66/66 67/67/67 65/68/68
f 71/69/69 72/70/70 70/71/71 69/72/72
f 74/73/73 76/74/74 75/75/75 73/76/76
f 78/77/77 80/78/78 79/79/79 77/80/80
