# This file uses centimeters as units for non-parametric coordinates.

mtllib left_kite.mtl
g default
v 1.100644 -0.007123 -1.022883
v 1.086823 -0.008717 -1.236892
v 0.569006 0.002163 -1.192727
v 0.569954 0.004630 -1.013678
v 1.032345 -0.010239 -1.474074
v 0.557326 -0.000878 -1.405885
v 0.523522 -0.003143 -1.563986
v 0.976006 -0.011642 -1.655910
v 0.888776 -0.012939 -1.836223
v 0.792810 -0.013911 -1.972099
v 0.417649 -0.006750 -1.792118
v 0.486466 -0.005489 -1.702222
v 0.344939 -0.008296 -1.892149
v 0.616324 -0.014981 -2.123801
v 0.274717 -0.009572 -1.974065
v 0.457313 -0.015598 -2.215704
v 0.232732 -0.010298 -2.001290
v 0.291726 -0.016035 -2.283431
v 0.132484 -0.013924 -2.034667
v 0.140280 -0.022089 -2.328281
v 0.000000 -0.014868 -2.062691
v 0.000000 -0.016882 -2.348234
v 1.102787 -0.005139 -0.736608
v 0.569406 0.007949 -0.738077
v 0.543195 0.013514 -0.033484
v 1.127380 -0.000057 -0.032212
v 0.654341 0.023096 3.409226
v 1.118166 0.023744 3.402130
v 0.000000 0.000278 -0.019145
v 0.000000 0.023995 3.381774
v 2.593405 0.000739 -0.042314
v 2.633021 0.019058 2.593997
v 4.050574 -0.000262 -0.031379
v 4.298240 0.015978 1.670369
v 5.028165 0.000012 -0.005212
v 5.223328 0.008778 1.215971
v 0.000000 0.012386 1.656536
v 0.597963 0.025145 1.662757
v 1.122841 0.011794 1.659939
v 2.583569 0.067429 1.268100
v 4.158548 0.059022 0.808488
v 5.124370 0.028697 0.596271
v 5.413176 0.000827 0.094888
v 5.628584 0.003710 0.477462
v 5.511700 0.007277 0.991543
v 2.723298 0.032730 2.823766
v 1.739239 0.038805 3.378657
v 4.360610 0.025104 1.923256
v 5.115035 0.022251 1.518756
v 5.025228 0.042804 1.802981
v 4.406010 0.046298 2.148399
v 2.856508 0.056824 3.020162
v 2.335557 0.062666 3.331598
v 2.852241 0.084427 3.247844
v 3.069312 0.080535 3.108065
v 4.455700 0.073285 2.347501
v 4.857100 0.070319 2.120162
v 4.655563 0.092353 2.375000
v 4.493805 0.106379 2.548073
v 3.330575 0.105190 3.136339
v 3.080894 0.095047 3.199010
v 0.000000 -0.097458 4.951297
v 0.799531 -0.098887 4.928393
v 2.075743 -0.097957 4.920510
v 0.836159 -0.082918 5.135852
v 0.000000 -0.082584 5.140092
v 2.439956 -0.086117 5.095259
v 0.883099 -0.065650 5.284834
v 0.270493 -0.062351 5.298461
v 2.857923 -0.074087 5.247949
v 1.009290 -0.015240 5.491552
v 0.574725 -0.008808 5.506921
v 3.310442 -0.019127 5.477040
v 0.913527 0.096558 5.746081
v 1.303456 0.106900 5.762805
v 3.464990 0.069973 5.694995
v 1.222220 0.205151 5.921687
v 1.562631 0.216961 5.939280
v 3.154891 0.215534 5.937616
v 1.632033 0.382828 6.131371
v 1.889830 0.382628 6.131451
v 2.919264 0.371029 6.119169
v 1.966040 0.570383 6.292237
v 2.192028 0.551860 6.277498
v 3.070797 0.552824 6.278330
v 2.286697 0.762887 6.432136
v 2.479626 0.743851 6.418302
v 3.206969 0.734199 6.411287
v 2.642623 0.955708 6.596927
v 2.861581 0.960240 6.602100
v 3.382809 0.953689 6.595197
v 3.004679 1.116128 6.801132
v 3.170742 1.109066 6.790998
v 3.533031 1.101990 6.781977
v 3.320028 1.244136 6.984829
v 3.448230 1.248995 6.991807
v 3.686814 1.243496 6.983908
v 3.743262 1.386712 7.209727
v 3.852160 1.385824 7.208322
v 3.686859 1.386947 7.210270
v 3.983544 1.462616 7.408188
v 3.891540 0.118756 2.936212
v 4.158143 0.117837 2.793723
v 2.856529 0.283400 6.016846
v 2.933975 0.254118 5.982666
v 3.375665 0.174044 5.871387
v 3.412489 0.017205 5.569094
v 3.103423 -0.049076 5.353314
v 2.881910 0.265266 5.995683
v 2.880176 0.326527 6.067212
v 3.247808 0.203822 5.919541
v 3.447251 0.132423 5.804081
v 3.683583 0.021788 -0.261876
v 2.557652 0.021212 -0.255519
v 3.313197 0.041647 -0.495947
v 2.533170 0.038535 -0.455137
v 2.972178 0.053724 -0.661599
v 2.638827 0.050574 -0.619669
v 2.777602 0.054619 -0.673515
v 2.559560 0.045189 -0.547986
v 3.138580 0.048948 -0.598021
v 5.225264 0.000429 0.025522
v 5.551241 0.002293 0.251053
v 5.623646 0.005424 0.732429
v 5.375944 0.007984 1.120642
v 5.295743 0.020205 0.555890
v 5.457664 0.012180 0.517736
v 1.158888 0.046874 5.629498
v 0.764441 0.050193 5.640841
v 0.918691 0.096695 5.746303
v 0.934053 0.103779 5.757757
v 1.414491 0.154052 5.838410
v 1.085826 0.157170 5.844096
v 3.220005 0.134841 5.807920
v 3.193847 0.074605 5.703501
v 3.161190 0.020513 5.575830
v 3.136132 -0.018832 5.478139
v 1.712378 0.292781 6.027229
v 1.432542 0.296337 6.029300
v 2.881680 0.215779 5.937901
v 2.879155 0.138468 5.813675
v 2.876842 0.080021 5.713446
v 2.872450 0.024315 5.583569
v 2.868815 -0.018381 5.479825
v 1.816559 0.345530 6.088417
v 1.557752 0.350623 6.093365
v 1.651430 0.261922 5.991433
v 1.354959 0.262701 5.989604
vt 0.596276 0.851752
vt 0.592149 0.872374
vt 0.580063 0.903981
vt 0.587515 0.888220
vt 0.571713 0.915899
vt 0.557038 0.930416
vt 0.542673 0.939400
vt 0.528276 0.945958
vt 0.500554 0.949287
vt 0.514002 0.948784
vt 0.596800 0.833213
vt 0.596113 0.808513
vt 0.595293 0.747829
vt 0.546663 0.748551
vt 0.551364 0.809084
vt 0.551795 0.832992
vt 0.551825 0.848534
vt 0.550879 0.867052
vt 0.547933 0.880817
vt 0.544677 0.892852
vt 0.538585 0.900719
vt 0.532142 0.909453
vt 0.525916 0.916603
vt 0.500531 0.747409
vt 0.522194 0.918989
vt 0.513310 0.921930
vt 0.500554 0.924393
vt 0.728879 0.748770
vt 0.851304 0.748460
vt 0.552774 0.601769
vt 0.500555 0.602286
vt 0.597685 0.602050
vt 0.600192 0.452471
vt 0.724344 0.635872
vt 0.728450 0.520232
vt 0.860992 0.675556
vt 0.875180 0.599385
vt 0.977198 0.734553
vt 0.935944 0.745750
vt 0.989846 0.669397
vt 0.992979 0.704533
vt 0.944729 0.693142
vt 0.954539 0.639793
vt 0.647824 0.453210
vt 0.736383 0.503538
vt 0.881280 0.577657
vt 0.947499 0.611136
vt 0.939698 0.580868
vt 0.744641 0.487493
vt 0.886222 0.554903
vt 0.696246 0.457412
vt 0.741742 0.463526
vt 0.763974 0.477964
vt 0.889094 0.531098
vt 0.921443 0.549009
vt 0.906723 0.530778
vt 0.763633 0.467264
vt 0.786201 0.471401
vt 0.836413 0.486887
vt 0.860709 0.498456
vt 0.891582 0.518403
vt 0.500583 0.452863
vt 0.500535 0.307858
vt 0.558797 0.450932
vt 0.678762 0.318022
vt 0.570215 0.312485
vt 0.522174 0.277033
vt 0.500633 0.289405
vt 0.571680 0.282333
vt 0.745131 0.289635
vt 0.711678 0.303122
vt 0.573615 0.292911
vt 0.546650 0.262013
vt 0.585357 0.263824
vt 0.787714 0.267427
vt 0.766652 0.279894
vt 0.575698 0.242868
vt 0.609639 0.242352
vt 0.801813 0.247216
vt 0.796244 0.259992
vt 0.601886 0.225539
vt 0.631022 0.224911
vt 0.766891 0.222848
vt 0.777156 0.224113
vt 0.792731 0.230257
vt 0.799148 0.237008
vt 0.635428 0.203079
vt 0.657444 0.203578
vt 0.751148 0.204361
vt 0.747988 0.210389
vt 0.748479 0.217276
vt 0.750798 0.219573
vt 0.755386 0.220950
vt 0.662730 0.182997
vt 0.682421 0.184493
vt 0.762197 0.188110
vt 0.689219 0.163327
vt 0.706844 0.164921
vt 0.773415 0.169318
vt 0.736276 0.143783
vt 0.786610 0.147411
vt 0.717791 0.143218
vt 0.748210 0.121852
vt 0.799180 0.126928
vt 0.762932 0.122996
vt 0.813954 0.105568
vt 0.775728 0.102408
vt 0.786705 0.102097
vt 0.827208 0.082568
vt 0.811943 0.080117
vt 0.807085 0.079895
vt 0.846035 0.052967
vt 0.822178 0.766721
vt 0.726156 0.762658
vt 0.797453 0.782641
vt 0.720130 0.778946
vt 0.771251 0.798572
vt 0.762586 0.803545
vt 0.745342 0.806307
vt 0.731922 0.802486
vt 0.721555 0.791019
vt 0.958477 0.743316
vt 0.988993 0.720700
vt 0.994301 0.687650
vt 0.974638 0.652633
vt 0.961128 0.697013
vt 0.976623 0.700672
vt 0.597705 0.252904
vt 0.562916 0.251293
vt 0.576148 0.242862
vt 0.577440 0.241716
vt 0.618800 0.234880
vt 0.590315 0.233196
vt 0.778987 0.236770
vt 0.777707 0.246606
vt 0.774105 0.259202
vt 0.772386 0.267154
vt 0.643114 0.215148
vt 0.619100 0.214012
vt 0.743578 0.223202
vt 0.748746 0.236413
vt 0.749523 0.245892
vt 0.748667 0.258294
vt 0.748879 0.266735
vt 0.651527 0.208355
vt 0.629348 0.207150
vt 0.638192 0.219122
vt 0.612750 0.218264
vn 0.021015 0.999717 -0.011119
vn 0.021015 0.999717 -0.011119
vn 0.021015 0.999717 -0.011119
vn 0.021015 0.999717 -0.011119
vn 0.018921 0.999738 -0.012909
vn 0.018921 0.999738 -0.012909
vn 0.018921 0.999738 -0.012909
vn 0.018921 0.999738 -0.012909
vn 0.016627 0.999746 -0.015196
vn 0.016627 0.999746 -0.015196
vn 0.016627 0.999746 -0.015196
vn 0.016627 0.999746 -0.015196
vn 0.011426 0.999769 -0.018227
vn 0.011426 0.999769 -0.018227
vn 0.011426 0.999769 -0.018227
vn 0.011426 0.999769 -0.018227
vn 0.014169 0.999756 -0.016964
vn 0.014169 0.999756 -0.016964
vn 0.014169 0.999756 -0.016964
vn 0.014169 0.999756 -0.016964
vn 0.009076 0.999771 -0.019371
vn 0.009076 0.999771 -0.019371
vn 0.009076 0.999771 -0.019371
vn 0.009076 0.999771 -0.019371
vn 0.007006 0.999773 -0.020130
vn 0.007006 0.999773 -0.020130
vn 0.007006 0.999773 -0.020130
vn 0.007006 0.999773 -0.020130
vn 0.003855 0.999779 -0.020675
vn 0.003855 0.999779 -0.020675
vn 0.003855 0.999779 -0.020675
vn 0.003855 0.999779 -0.020675
vn -0.029855 0.999173 -0.027589
vn -0.029855 0.999174 -0.027589
vn -0.029855 0.999173 -0.027589
vn -0.029855 0.999173 -0.027589
vn 0.018672 0.999676 -0.017317
vn 0.018672 0.999676 -0.017317
vn 0.018672 0.999676 -0.017317
vn 0.018672 0.999676 -0.017317
vn 0.023270 0.999684 -0.009501
vn 0.023270 0.999684 -0.009501
vn 0.023270 0.999684 -0.009501
vn 0.023270 0.999684 -0.009501
vn 0.023866 0.999687 -0.007527
vn 0.023866 0.999687 -0.007527
vn 0.023866 0.999687 -0.007527
vn 0.023866 0.999687 -0.007527
vn 0.018879 0.999808 -0.005285
vn 0.018812 0.999809 -0.005260
vn 0.024256 0.999679 -0.007287
vn 0.024256 0.999679 -0.007287
vn -0.015749 0.999866 -0.004525
vn -0.015522 0.999870 -0.004456
vn -0.022820 0.999717 -0.006668
vn -0.022820 0.999717 -0.006668
vn -0.025796 0.999620 -0.009764
vn -0.025796 0.999620 -0.009764
vn -0.025796 0.999620 -0.009764
vn -0.025796 0.999620 -0.009764
vn -0.030254 0.999457 -0.013063
vn -0.030254 0.999457 -0.013063
vn -0.030254 0.999457 -0.013063
vn -0.030254 0.999457 -0.013063
vn -0.023084 0.999683 -0.010036
vn -0.023084 0.999683 -0.010036
vn -0.023084 0.999683 -0.010036
vn -0.023084 0.999683 -0.010036
vn -0.011025 0.999918 -0.006561
vn -0.011025 0.999918 -0.006561
vn -0.011025 0.999918 -0.006561
vn -0.011025 0.999918 -0.006561
vn -0.011386 0.999913 -0.006638
vn -0.011386 0.999913 -0.006638
vn -0.011386 0.999913 -0.006638
vn -0.011386 0.999913 -0.006638
vn -0.017472 0.999814 -0.008193
vn -0.017472 0.999814 -0.008193
vn -0.017472 0.999814 -0.008193
vn -0.017472 0.999814 -0.008193
vn -0.016565 0.999857 -0.003471
vn -0.018279 0.999786 -0.009655
vn -0.022875 0.999394 -0.026252
vn -0.022875 0.999394 -0.026252
vn 0.010526 0.999943 0.002040
vn 0.007134 0.999917 -0.010713
vn -0.005226 0.998736 -0.049990
vn -0.004631 0.999434 -0.033316
vn 0.022008 0.999715 -0.009238
vn 0.021030 0.999689 -0.013384
vn 0.009473 0.998015 -0.062254
vn 0.009473 0.998015 -0.062254
vn -0.009400 0.999952 -0.002601
vn -0.009400 0.999952 -0.002601
vn 0.012816 0.999913 -0.003028
vn 0.012816 0.999913 -0.003028
vn -0.012261 0.999852 0.012048
vn -0.012261 0.999852 0.012048
vn 0.020601 0.998989 0.039962
vn 0.020601 0.998989 0.039962
vn 0.032915 0.998768 0.037144
vn 0.032915 0.998768 0.037144
vn 0.044446 0.998782 -0.021434
vn 0.026965 0.999256 -0.027585
vn 0.027158 0.999070 -0.033487
vn 0.037366 0.999265 0.008584
vn 0.034844 0.999383 0.004512
vn 0.048136 0.998824 -0.005782
vn -0.024833 0.998264 -0.053410
vn -0.024833 0.998264 -0.053410
vn -0.024833 0.998264 -0.053410
vn -0.024833 0.998264 -0.053410
vn -0.019431 0.998968 -0.041042
vn -0.019431 0.998968 -0.041042
vn -0.019431 0.998968 -0.041042
vn -0.019431 0.998968 -0.041042
vn -0.015451 0.999002 -0.041907
vn -0.015451 0.999002 -0.041907
vn -0.015451 0.999002 -0.041907
vn -0.015451 0.999002 -0.041907
vn -0.041937 0.995477 -0.085242
vn -0.041937 0.995477 -0.085242
vn -0.041937 0.995477 -0.085242
vn -0.041937 0.995477 -0.085242
vn -0.043530 0.995128 -0.088466
vn -0.043530 0.995128 -0.088466
vn -0.043530 0.995128 -0.088466
vn -0.043530 0.995128 -0.088466
vn -0.046158 0.994514 -0.093869
vn -0.046158 0.994514 -0.093869
vn -0.046158 0.994514 -0.093869
vn -0.046158 0.994514 -0.093869
vn -0.061067 0.990741 -0.121257
vn -0.061067 0.990741 -0.121257
vn -0.061067 0.990741 -0.121257
vn -0.061067 0.990741 -0.121257
vn -0.060540 0.990965 -0.119680
vn -0.060540 0.990965 -0.119680
vn -0.060540 0.990965 -0.119680
vn -0.060540 0.990965 -0.119680
vn -0.060193 0.991135 -0.118438
vn -0.060193 0.991135 -0.118438
vn -0.060193 0.991135 -0.118438
vn -0.060193 0.991135 -0.118438
vn -0.074036 0.986512 -0.145989
vn -0.074036 0.986512 -0.145989
vn -0.074036 0.986512 -0.145989
vn -0.074036 0.986512 -0.145989
vn -0.077193 0.986045 -0.147504
vn -0.077178 0.986045 -0.147506
vn -0.077295 0.986039 -0.147489
vn -0.077151 0.985685 -0.149908
vn -0.077137 0.985688 -0.149898
vn -0.076505 0.985802 -0.149473
vn -0.077151 0.985685 -0.149908
vn 0.001350 0.996913 0.078508
vn 0.001350 0.996913 0.078508
vn 0.001350 0.996913 0.078508
vn 0.001350 0.996913 0.078508
vn -0.000215 0.996791 0.080045
vn -0.000215 0.996791 0.080045
vn -0.000215 0.996791 0.080045
vn -0.000215 0.996791 0.080045
vn -0.000213 0.996986 -0.077583
vn -0.000213 0.996986 -0.077583
vn -0.000213 0.996986 -0.077583
vn -0.000213 0.996986 -0.077583
vn -0.000428 0.997396 -0.072122
vn -0.000428 0.997396 -0.072122
vn -0.000428 0.997396 -0.072122
vn -0.000428 0.997396 -0.072122
vn 0.000983 0.992516 -0.122114
vn 0.000983 0.992516 -0.122114
vn 0.000983 0.992516 -0.122114
vn 0.000983 0.992516 -0.122114
vn 0.001106 0.995151 -0.098352
vn 0.001106 0.995151 -0.098352
vn 0.001106 0.995151 -0.098352
vn 0.001106 0.995151 -0.098352
vn 0.002223 0.969507 -0.245054
vn 0.002223 0.969507 -0.245054
vn 0.002223 0.969507 -0.245054
vn 0.002223 0.969507 -0.245054
vn 0.000013 0.971973 -0.235094
vn -0.000046 0.971960 -0.235149
vn -0.000046 0.971960 -0.235149
vn 0.000040 0.971979 -0.235069
vn -0.005444 0.915748 -0.401717
vn -0.004466 0.915366 -0.402597
vn -0.002853 0.914734 -0.404048
vn -0.005444 0.915748 -0.401717
vn -0.005444 0.915748 -0.401717
vn 0.002135 0.915697 -0.401864
vn 0.001212 0.917026 -0.398826
vn 0.000674 0.916770 -0.399416
vn 0.002064 0.914971 -0.403514
vn -0.001694 0.850588 -0.525830
vn -0.001408 0.850446 -0.526060
vn -0.000683 0.850085 -0.526645
vn -0.001694 0.850588 -0.525830
vn 0.000152 0.848739 -0.528813
vn 0.000277 0.848840 -0.528650
vn -0.000062 0.853471 -0.521141
vn -0.000386 0.855284 -0.518160
vn 0.001632 0.758528 -0.651639
vn 0.002260 0.758026 -0.652220
vn 0.003378 0.757133 -0.653252
vn 0.001632 0.758528 -0.651639
vn 0.000653 0.758167 -0.652060
vn 0.000653 0.758167 -0.652060
vn 0.000552 0.758160 -0.652069
vn 0.000461 0.758153 -0.652077
vn 0.002127 0.649949 -0.759975
vn 0.002127 0.649949 -0.759975
vn 0.002127 0.649949 -0.759975
vn 0.002127 0.649949 -0.759975
vn -0.000864 0.656775 -0.754086
vn -0.000864 0.656775 -0.754086
vn -0.000864 0.656775 -0.754086
vn -0.000864 0.656775 -0.754086
vn -0.001944 0.591642 -0.806198
vn -0.001944 0.591642 -0.806198
vn -0.001944 0.591642 -0.806198
vn -0.001944 0.591642 -0.806198
vn 0.000093 0.591236 -0.806498
vn 0.000093 0.591236 -0.806498
vn 0.000093 0.591236 -0.806498
vn 0.000093 0.591236 -0.806498
vn 0.006468 0.641673 -0.766951
vn 0.006468 0.641673 -0.766951
vn 0.006468 0.641673 -0.766951
vn 0.006468 0.641673 -0.766951
vn -0.000150 0.644916 -0.764254
vn -0.000150 0.644916 -0.764254
vn -0.000150 0.644916 -0.764254
vn -0.000150 0.644916 -0.764254
vn -0.002751 0.788225 -0.615381
vn -0.002751 0.788225 -0.615381
vn -0.002751 0.788225 -0.615381
vn -0.002751 0.788225 -0.615381
vn 0.000897 0.783801 -0.621011
vn 0.000897 0.783801 -0.621011
vn 0.000897 0.783801 -0.621011
vn 0.000897 0.783801 -0.621011
vn 0.000009 0.820442 -0.571729
vn 0.000009 0.820442 -0.571729
vn 0.000009 0.820442 -0.571729
vn 0.000009 0.820442 -0.571729
vn 0.000995 0.819193 -0.573518
vn 0.000995 0.819193 -0.573518
vn 0.000995 0.819193 -0.573518
vn 0.000995 0.819193 -0.573518
vn 0.001172 0.844351 -0.535789
vn 0.001172 0.844351 -0.535789
vn 0.001172 0.844351 -0.535789
vn 0.001172 0.844351 -0.535789
vn -0.002668 0.846844 -0.531834
vn -0.002668 0.846844 -0.531834
vn -0.002668 0.846844 -0.531834
vn -0.002668 0.846844 -0.531834
vn 0.002954 0.932816 -0.360342
vn 0.001386 0.933456 -0.358689
vn 0.002571 0.932972 -0.359939
vn 0.000021 0.995574 0.093978
vn 0.000083 0.995883 0.090649
vn 0.000151 0.996441 0.084292
vn 0.000088 0.996605 0.082336
vn -0.000235 0.997413 0.071881
vn -0.000248 0.997426 0.071710
vn -0.000000 0.997191 0.074908
vn 0.022436 0.998880 -0.041647
vn 0.022035 0.998849 -0.042603
vn 0.020689 0.998736 -0.045809
vn 0.020689 0.998736 -0.045809
vn 0.037147 0.999134 0.018735
vn 0.036822 0.999180 0.016851
vn 0.037610 0.999063 0.021421
vn 0.037610 0.999063 0.021421
vn 0.024737 0.999078 -0.035076
vn 0.035614 0.999301 0.011383
vn -0.000001 0.997190 0.074917
vn 0.000002 0.997191 0.074905
vn 0.000234 0.918384 -0.395689
vn 0.000177 0.917408 -0.397949
vn -0.002280 0.914508 -0.404562
vn -0.002280 0.914508 -0.404562
vn -0.000451 0.849969 -0.526832
vn -0.000449 0.849971 -0.526829
vn 0.000114 0.850472 -0.526021
vn -0.000468 0.858990 -0.511993
vn -0.000566 0.857442 -0.514581
vn -0.000451 0.849969 -0.526832
vn 0.000271 0.857567 -0.514372
vn 0.000585 0.849520 -0.527556
vn 0.000141 0.850624 -0.525775
vn -0.000028 0.863569 -0.504231
vn -0.000079 0.865828 -0.500342
vn -0.000075 0.867048 -0.498224
vn 0.002321 0.922724 -0.385454
vn 0.001906 0.923103 -0.384548
vn 0.002596 0.920510 -0.390712
vn 0.002649 0.921192 -0.389099
vn 0.001030 0.928611 -0.371054
vn 0.000809 0.926987 -0.375094
vn 0.000771 0.972131 -0.234437
vn 0.000656 0.972083 -0.234638
vn 0.000158 0.971872 -0.235512
vn 0.000301 0.758090 -0.652150
vn 0.000348 0.758114 -0.652122
vn 0.000120 0.758407 -0.651781
vn 0.000108 0.758431 -0.651754
vn 0.004924 0.755798 -0.654786
vn 0.003900 0.756695 -0.653756
vn 0.005883 0.754995 -0.655705
vn 0.006775 0.754282 -0.656516
vn 0.000086 0.758534 -0.651634
vn 0.000001 0.759514 -0.650491
vn 0.000716 0.849193 -0.528083
vn 0.000090 0.758478 -0.651699
vn 0.006965 0.754130 -0.656688
vn 0.006965 0.754130 -0.656688
vn -0.076282 0.985845 -0.149298
vn -0.074984 0.986072 -0.148454
vn -0.077087 0.986051 -0.147519
vn 0.000001 0.759514 -0.650491
vn 0.000452 0.933835 -0.357703
s off
g polySurface3
usemtl blinn2SG
f 1/11/1 2/1/2 3/17/3 4/16/4
f 3/17/5 2/1/6 5/2/7 6/18/8
f 8/4/9 7/19/10 6/18/11 5/2/12
f 12/20/13 9/3/14 10/5/15 11/21/16
f 9/3/17 12/20/18 7/19/19 8/4/20
f 14/6/21 13/22/22 11/21/23 10/5/24
f 16/7/25 15/23/26 13/22/27 14/6/28
f 18/8/29 17/25/30 15/23/31 16/7/32
f 20/10/33 19/26/34 17/25/35 18/8/36
f 22/9/37 21/27/38 19/26/39 20/10/40
f 24/15/41 23/12/42 1/11/43 4/16/44
f 24/15/45 25/14/46 26/13/47 23/12/48
s 1
f 38/30/49 39/32/50 26/13/51 25/14/52
s 2
f 37/31/53 38/30/54 25/14/55 29/24/56
s off
f 25/14/57 24/15/58 4/16/59 29/24/60
f 29/24/61 4/16/62 3/17/63 6/18/64
f 29/24/65 6/18/66 7/19/67 12/20/68
f 29/24/69 12/20/70 11/21/71 13/22/72
f 29/24/73 13/22/74 15/23/75 17/25/76
f 29/24/77 17/25/78 19/26/79 21/27/80
s 3
f 39/32/81 40/34/82 31/28/83 26/13/84
s 4
f 40/34/85 41/36/86 33/29/87 31/28/88
s 5
f 41/36/89 42/42/90 35/39/91 33/29/92
s 2
f 27/64/93 38/30/54 37/31/53 30/62/94
s 1
f 28/33/95 39/32/50 38/30/49 27/64/96
s 3
f 32/35/97 40/34/82 39/32/81 28/33/98
s 4
f 34/37/99 41/36/86 40/34/85 32/35/100
s 5
f 36/43/101 42/42/90 41/36/89 34/37/102
s 6
f 44/41/103 123/123/104 127/127/105
s 7
f 127/127/106 124/124/107 44/41/108
s off
f 47/44/109 46/45/110 32/35/111 28/33/112
f 46/45/113 48/46/114 34/37/115 32/35/116
f 48/46/117 49/47/118 36/43/119 34/37/120
f 51/50/121 50/48/122 49/47/123 48/46/124
f 52/49/125 51/50/126 48/46/127 46/45/128
f 53/51/129 52/49/130 46/45/131 47/44/132
f 53/51/133 54/52/134 55/53/135 52/49/136
f 55/53/137 56/54/138 51/50/139 52/49/140
f 56/54/141 57/55/142 50/48/143 51/50/144
f 59/61/145 58/56/146 57/55/147 56/54/148
s 8
f 61/57/149 55/53/150 54/52/151
s 9
f 60/58/152 102/59/153 56/54/154 55/53/155
s off
f 63/66/156 27/64/157 30/62/158 62/63/159
f 27/64/160 63/66/161 64/65/162 28/33/163
f 66/68/164 65/72/165 63/66/166 62/63/167
f 64/65/168 63/66/169 65/72/170 67/71/171
f 69/67/172 68/69/173 65/72/174 66/68/175
f 68/69/176 70/70/177 67/71/178 65/72/179
f 72/73/180 71/74/181 68/69/182 69/67/183
s 10
f 70/70/184 68/69/185 71/74/186 144/144/187
s 11
f 75/78/188 128/128/189 129/129/190 74/77/191 130/130/192
s 12
f 142/142/193 143/143/194 128/128/195 75/78/196
s 13
f 78/82/197 132/132/198 133/133/199 77/81/200
s 14
f 78/82/201 140/140/202 141/141/203 132/132/204
s 15
f 81/88/205 145/145/206 146/146/207 80/87/208
s 16
f 81/88/209 82/89/210 110/90/211 145/145/212
s off
f 84/95/213 81/88/214 80/87/215 83/94/216
f 84/95/217 85/96/218 82/89/219 81/88/220
f 87/98/221 84/95/222 83/94/223 86/97/224
f 85/96/225 84/95/226 87/98/227 88/99/228
f 90/100/229 87/98/230 86/97/231 89/102/232
f 90/100/233 91/101/234 88/99/235 87/98/236
f 89/102/237 92/103/238 93/105/239 90/100/240
f 91/101/241 90/100/242 93/105/243 94/104/244
f 92/103/245 95/107/246 96/108/247 93/105/248
f 93/105/249 96/108/250 97/106/251 94/104/252
f 99/109/253 97/106/254 96/108/255 98/110/256
f 95/107/257 100/111/258 98/110/259 96/108/260
s 17
f 99/109/261 98/110/262 101/112/263
s 4
f 31/28/88 33/29/87 113/113/264 114/114/265
f 114/114/265 113/113/264 115/115/266 116/116/267
f 120/121/268 121/117/269 118/120/270
s 6
f 126/126/271 122/122/272 35/39/273 42/42/274
s 7
f 125/125/275 126/126/276 42/42/277 36/43/278
s 6
f 127/127/105 43/38/279 122/122/272 126/126/271
s 7
f 45/40/280 127/127/106 126/126/276 125/125/275
s 4
f 116/116/267 115/115/266 121/117/269 120/121/268
f 119/119/281 121/117/269 117/118/282
s 12
f 143/143/194 144/144/283 71/74/284 128/128/195
s 11
f 129/129/190 128/128/189 71/74/285 72/73/286
s 13
f 131/131/287 130/130/288 74/77/289
s 14
f 132/132/204 141/141/203 142/142/290 75/78/291
s 13
f 133/133/199 132/132/198 75/78/292 130/130/288 131/131/287
s 14
f 134/134/293 111/84/294 106/85/295 112/86/296
f 135/135/297 134/134/293 112/86/296 76/79/298
s 12
f 107/80/299 136/136/300 135/135/301 76/79/302
f 73/75/303 137/137/304 136/136/300 107/80/299
s 10
f 108/76/305 137/137/306 73/75/307
s 16
f 138/138/308 104/91/309 109/92/310 147/147/311
s 15
f 139/139/312 138/138/313 147/147/314 148/148/315
s 16
f 140/140/316 109/92/310 105/93/317
s 14
f 141/141/203 140/140/202 79/83/318 111/84/294 134/134/293
f 142/142/290 141/141/203 134/134/293 135/135/297
s 12
f 135/135/301 136/136/300 143/143/194 142/142/193
f 136/136/300 137/137/304 144/144/283 143/143/194
s 10
f 70/70/184 144/144/187 137/137/306 108/76/305
s 16
f 145/145/212 110/90/211 104/91/309 138/138/308
s 15
f 146/146/207 145/145/206 138/138/313 139/139/312
s 16
f 147/147/311 109/92/310 140/140/316 78/82/319
s 15
f 148/148/315 147/147/314 78/82/320 77/81/321
s 4
f 118/120/270 121/117/269 119/119/281
s 6
f 127/127/105 123/123/104 43/38/279
s 7
f 45/40/280 124/124/107 127/127/106
s 9
f 56/54/154 102/59/153 103/60/322
f 56/54/154 103/60/322 59/61/323
s 8
f 61/57/149 60/58/324 55/53/150
s 16
f 140/140/316 105/93/317 79/83/325
s 17
f 101/112/263 98/110/262 100/111/326
